<svg xmlns="http://www.w3.org/2000/svg" viewBox="0 0 512 512">
  <defs>
    <linearGradient id="bg" x1="0%" y1="0%" x2="0%" y2="100%">
      <stop offset="0%" stop-color="#6366f1" />
      <stop offset="100%" stop-color="#4338ca" />
    </linearGradient>
  </defs>
  <rect width="512" height="512" rx="96" fill="url(#bg)" />
  <g fill="#fff">
    <path d="M144 176c0-22.091 17.909-40 40-40h144c22.091 0 40 17.909 40 40v24h-32v-20c0-4.418-3.582-8-8-8H184c-4.418 0-8 3.582-8 8v20h-32v-24z"/>
    <path d="M168 224h176c22.091 0 40 17.909 40 40v80c0 22.091-17.909 40-40 40H168c-22.091 0-40-17.909-40-40v-80c0-22.091 17.909-40 40-40zm0 48c-4.418 0-8 3.582-8 8v56c0 4.418 3.582 8 8 8h176c4.418 0 8-3.582 8-8v-56c0-4.418-3.582-8-8-8H168z"/>
    <circle cx="208" cy="304" r="20"/>
    <circle cx="304" cy="304" r="20"/>
  </g>
</svg>
